<svg class="icons" xmlns="http://www.w3.org/2000/svg" viewBox="0 0 10.674 7.938">
  <defs>
    <style>
      fill: none;
      .cls-1 {
        fill: #666;
      }
    </style>
  </defs>
  <g id="logout" transform="translate(10.674 50.237) rotate(180)">
    <path id="XMLID_4_" class="cls-1" d="M1.657,107.426H7.278a.485.485,0,1,0,0-.97H1.657l.627-.627a.485.485,0,1,0-.686-.686L.142,106.6c-.011.011-.022.023-.032.035l-.007.009-.021.029-.005.009c-.007.01-.013.021-.019.032l0,.007c-.006.012-.012.024-.017.036l0,0c-.005.013-.01.026-.014.04v.005c0,.013-.008.027-.01.041s0,.008,0,.012,0,.023-.005.035a.478.478,0,0,0,0,.1c0,.012,0,.023.005.035s0,.008,0,.012.006.028.01.041v0c0,.014.009.027.014.04l0,0c.005.013.011.025.017.037l0,.006c.006.011.013.022.019.032l.005.009.021.029.007.009c.01.012.021.024.032.035L1.6,108.74a.485.485,0,0,0,.686-.686Z" transform="translate(0 -60.673)"/>
    <path id="XMLID_5_" class="cls-1" d="M106.224,42.3a3.966,3.966,0,0,0-3.3,1.757.485.485,0,0,0,.805.541,3,3,0,1,1,0,3.346.485.485,0,0,0-.8.543,3.969,3.969,0,1,0,3.291-6.188Z" transform="translate(-99.518 0)"/>
  </g>
</svg>
