<svg class="icons" id="outline-pool-24px" xmlns="http://www.w3.org/2000/svg" viewBox="0 0 16 16">
  <defs>
    <style>
      fill: none;
      .cls-1 {
        fill: none;
      }

      .cls-2 {
        fill: #fff;
      }
    </style>
  </defs>
  <path id="Path_478" data-name="Path 478" class="cls-1" d="M0,0H16V16H0Z"/>
  <path id="Path_479" data-name="Path 479" class="cls-2" d="M7.6,6.611,5.325,8.958a3.787,3.787,0,0,1,.539.282,1.231,1.231,0,0,0,.805.26,1.231,1.231,0,0,0,.8-.26,2.666,2.666,0,0,1,1.533-.462,2.621,2.621,0,0,1,1.526.462,1.287,1.287,0,0,0,.805.26,1.245,1.245,0,0,0,.8-.26c.084-.051.182-.108.287-.166L7.936,4.444A4.581,4.581,0,0,0,4.1,3V4.806A3.388,3.388,0,0,1,6.9,5.889ZM16,12.75h0ZM4.345,12.028a1.287,1.287,0,0,1,.8.26,2.621,2.621,0,0,0,1.526.462A2.621,2.621,0,0,0,8.2,12.288a1.231,1.231,0,0,1,.8-.26,1.287,1.287,0,0,1,.805.26,2.75,2.75,0,0,0,3.052,0,1.231,1.231,0,0,1,.805-.26,1.287,1.287,0,0,1,.8.26,2.641,2.641,0,0,0,1.512.462V11.305a1.287,1.287,0,0,1-.805-.26,2.75,2.75,0,0,0-3.052,0,1.245,1.245,0,0,1-.805.26,1.287,1.287,0,0,1-.8-.26,2.75,2.75,0,0,0-3.052,0,1.231,1.231,0,0,1-.805.26,1.287,1.287,0,0,1-.805-.26,2.621,2.621,0,0,0-1.526-.462,2.621,2.621,0,0,0-1.526.462,1.231,1.231,0,0,1-.805.26V12.75a2.711,2.711,0,0,0,1.54-.462,1.245,1.245,0,0,1,.8-.26Zm9.324,1.806a2.621,2.621,0,0,0-1.526.462,1.245,1.245,0,0,1-.8.26,1.287,1.287,0,0,1-.805-.26,2.621,2.621,0,0,0-1.526-.462,2.666,2.666,0,0,0-1.533.462,1.231,1.231,0,0,1-.8.26,1.231,1.231,0,0,1-.805-.26,2.621,2.621,0,0,0-1.526-.462A2.666,2.666,0,0,0,2.8,14.3a1.231,1.231,0,0,1-.805.26V16a2.666,2.666,0,0,0,1.533-.462,1.245,1.245,0,0,1,.805-.26,1.245,1.245,0,0,1,.805.26A2.621,2.621,0,0,0,6.669,16,2.666,2.666,0,0,0,8.2,15.538a1.231,1.231,0,0,1,.8-.26,1.287,1.287,0,0,1,.805.26,2.75,2.75,0,0,0,3.052,0,1.231,1.231,0,0,1,.805-.26,1.287,1.287,0,0,1,.8.26A2.621,2.621,0,0,0,16,16V14.555a1.231,1.231,0,0,1-.805-.26A2.621,2.621,0,0,0,13.669,13.833Z" transform="translate(-1 -1.5)"/>
  <circle id="Ellipse_72" data-name="Ellipse 72" class="cls-2" cx="1.25" cy="1.25" r="1.25" transform="translate(9.947 1.5)"/>
</svg>
