<svg style="display: none">
<symbol class="icons" id="bell" xmlns="http://www.w3.org/2000/svg" viewBox="0 0 8.281 10">
    <defs>
        <style>
            fill: none;
            .cls-2 {
            fill: #4d4d4d;
            }
        </style>
    </defs>
    <g id="bell" transform="translate(-44)">
        <g id="Group_452" data-name="Group 452" transform="translate(44)">
            <path id="Path_198" data-name="Path 198" class="cls-2" d="M52.281,7.656h-.391a.6.6,0,0,1-.483-.21,1.193,1.193,0,0,1-.22-.774V3.984A3.061,3.061,0,0,0,48.531.963V0H47.75V.963a3.061,3.061,0,0,0-2.656,3.021V6.8a.956.956,0,0,1-.211.655.644.644,0,0,1-.492.2H44V8.75h3.153a1.016,1.016,0,1,0,1.976,0h3.153ZM48.141,9.219a.234.234,0,1,1,.234-.234A.235.235,0,0,1,48.141,9.219Zm-2.672-1.25A1.721,1.721,0,0,0,45.875,6.8V3.984a2.274,2.274,0,0,1,2.232-2.265h.066a2.274,2.274,0,0,1,2.232,2.265V6.673a1.947,1.947,0,0,0,.405,1.279l.014.017Z" transform="translate(-44)"/>
        </g>
    </g>
</symbol>


    <symbol class="icons" id="bike" xmlns="http://www.w3.org/2000/svg" viewBox="0 0 24 24">
        <defs>
            <style>
                fill: none;
                .cls-1 {
                fill: none;
                }

                .cls-2 {
                fill: #ccc;
                }
            </style>
        </defs>
        <path id="Path_468" data-name="Path 468" class="cls-1" d="M0,0H24V24H0Z"/>
        <path id="Path_469" data-name="Path 469" class="cls-2" d="M15.5,5.773a2.078,2.078,0,0,0,2-2.137,2,2,0,1,0-4,0A2.078,2.078,0,0,0,15.5,5.773ZM5,12.717a5.129,5.129,0,0,0-5,5.341A5.129,5.129,0,0,0,5,23.4a5.129,5.129,0,0,0,5-5.341A5.129,5.129,0,0,0,5,12.717ZM5,21.8A3.747,3.747,0,0,1,5,14.32,3.747,3.747,0,0,1,5,21.8Zm5.8-10.683,2.4-2.564.8.855a6.79,6.79,0,0,0,5.1,2.243V9.512a4.818,4.818,0,0,1-3.6-1.6L13.6,5.88A2.362,2.362,0,0,0,12,5.239a1.633,1.633,0,0,0-1.4.641L7.8,8.871a2.182,2.182,0,0,0-.6,1.5,1.849,1.849,0,0,0,.6,1.5L11,14.854V20.2h2V13.572Zm8.2,1.6a5.129,5.129,0,0,0-5,5.341A5.129,5.129,0,0,0,19,23.4a5.129,5.129,0,0,0,5-5.341A5.129,5.129,0,0,0,19,12.717Zm0,9.08a3.747,3.747,0,0,1,0-7.478A3.747,3.747,0,0,1,19,21.8Z" transform="translate(0 -0.6)"/>
    </symbol>

    <symbol class ="icons" id="camera" xmlns="http://www.w3.org/2000/svg" viewBox="0 0 24 24">
        <defs>
            <style>
                fill: none;
                .cls-1 {
                fill: none;
                }

                .cls-2 {
                fill: #ccc;
                }
            </style>
        </defs>
        <path id="Path_476" data-name="Path 476" class="cls-1" d="M0,0H24V24H0Z"/>
        <path id="Path_477" data-name="Path 477" class="cls-2" d="M14.12,4l1.83,2H20V18H4V6H8.05L9.88,4h4.24M15,2H9L7.17,4H4A2.006,2.006,0,0,0,2,6V18a2.006,2.006,0,0,0,2,2H20a2.006,2.006,0,0,0,2-2V6a2.006,2.006,0,0,0-2-2H16.83ZM12,9a3,3,0,1,1-3,3,3.009,3.009,0,0,1,3-3m0-2a5,5,0,1,0,5,5A5,5,0,0,0,12,7Z" transform="translate(0 0)"/>
    </symbol>

    <symbol class="icons" id="close" xmlns="http://www.w3.org/2000/svg" viewBox="0 0 32.527 32.527">
        <defs>
            <style>
                fill: none;
                .cls-1 {
                fill: none;
                stroke: #fff;
                stroke-linecap: round;
                stroke-width: 3px;
                }
            </style>
        </defs>
        <g id="Group_484" data-name="Group 484" transform="translate(864.085 -593.262) rotate(135)">
            <line id="Line_31" data-name="Line 31" class="cls-1" x2="40" transform="translate(1010.5 168.5)"/>
            <line id="Line_32" data-name="Line 32" class="cls-1" y2="40" transform="translate(1030.5 148.5)"/>
        </g>
    </symbol>

    <symbol class="icons" id="entertainment" xmlns="http://www.w3.org/2000/svg" viewBox="0 0 24 24">
        <defs>
            <style>
                fill: none;
                .cls-1 {
                fill: none;
                }

                .cls-2 {
                fill: #ccc;
                }
            </style>
        </defs>
        <path id="Path_474" data-name="Path 474" class="cls-1" d="M0,0H24V24H0Z"/>
        <path id="Path_475" data-name="Path 475" class="cls-2" d="M13.88,4.16V7.044L12.8,8.124l-1.08-1.08V4.16h2.16m7.56,7.56v2.16H18.556l-1.08-1.08,1.08-1.08H21.44m-14.4,0,1.08,1.08-1.08,1.08H4.16V11.72H7.044M12.8,17.476l1.08,1.08V21.44H11.72V18.556l1.08-1.08M16.04,2H9.56V7.94l3.24,3.24,3.24-3.24ZM23.6,9.56H17.66L14.42,12.8l3.24,3.24H23.6Zm-15.66,0H2v6.48H7.94l3.24-3.24Zm4.86,4.86L9.56,17.66V23.6h6.48V17.66Z" transform="translate(-0.8 -0.8)"/>
    </symbol>

    <symbol class="icons" id="family" xmlns="http://www.w3.org/2000/svg" viewBox="0 0 24 24">
    <defs>
        <style>
            fill: none;
            .cls-1 {
            fill: none;
            }

            .cls-2 {
            fill: #ccc;
            }
        </style>
    </defs>
    <g id="outline-wc-24px" transform="translate(-0.01)">
        <path id="Path_484" data-name="Path 484" class="cls-1" d="M.01,0h24V24H.01V0Z"/>
        <path id="Path_485" data-name="Path 485" class="cls-2" d="M5.747,23.6V15.5H4V9.56A2.256,2.256,0,0,1,6.329,7.4H9.824a2.256,2.256,0,0,1,2.329,2.16V15.5H10.406v8.1Zm14.559,0V17.12H23.8L20.842,8.88A2.333,2.333,0,0,0,18.629,7.4h-.14a2.321,2.321,0,0,0-2.213,1.48l-2.958,8.24h3.494V23.6ZM8.076,6.32a2.242,2.242,0,0,0,2.329-2.16A2.242,2.242,0,0,0,8.076,2,2.242,2.242,0,0,0,5.747,4.16,2.242,2.242,0,0,0,8.076,6.32Zm10.482,0a2.242,2.242,0,0,0,2.329-2.16,2.336,2.336,0,0,0-4.659,0A2.242,2.242,0,0,0,18.559,6.32Z" transform="translate(-1.596 -0.8)"/>
    </g>
</symbol>

    <symbol class="icons" id="flower" xmlns="http://www.w3.org/2000/svg" viewBox="0 0 24 24">
        <defs>
            <style>
                fill: none;
                .cls-1 {
                fill: none;
                }

                .cls-2 {
                fill: #ccc;
                }
            </style>
        </defs>
        <path id="Path_472" data-name="Path 472" class="cls-1" d="M0,0H24V24H0Z"/>
        <path id="Path_473" data-name="Path 473" class="cls-2" d="M20.255,12.736a6.84,6.84,0,0,0-.942-.412,6.841,6.841,0,0,0,.942-.412,6.126,6.126,0,0,0,3.285-5.34,6.986,6.986,0,0,0-3.3-.823,6.884,6.884,0,0,0-3.274.823,6.961,6.961,0,0,0-.854.556A5.8,5.8,0,0,0,16.2,6.15,6.116,6.116,0,0,0,12.92.81,6.116,6.116,0,0,0,9.635,6.15a5.8,5.8,0,0,0,.088.978,5.991,5.991,0,0,0-.854-.566A6.884,6.884,0,0,0,5.6,5.739a7.018,7.018,0,0,0-3.3.823A6.084,6.084,0,0,0,5.585,11.9a6.84,6.84,0,0,0,.942.412,6.841,6.841,0,0,0-.942.412A6.126,6.126,0,0,0,2.3,18.066a6.986,6.986,0,0,0,3.3.823,6.884,6.884,0,0,0,3.274-.823,6.961,6.961,0,0,0,.854-.556,6.022,6.022,0,0,0-.088.988,6.116,6.116,0,0,0,3.285,5.34A6.116,6.116,0,0,0,16.2,18.5a5.8,5.8,0,0,0-.088-.978,5.937,5.937,0,0,0,.854.556,6.884,6.884,0,0,0,3.274.823,7.018,7.018,0,0,0,3.3-.823,6.126,6.126,0,0,0-3.285-5.34ZM17.475,8.743a3.391,3.391,0,0,1,.591-.381,4.627,4.627,0,0,1,2.19-.556,4.825,4.825,0,0,1,.865.082,4.214,4.214,0,0,1-1.949,2.243,5.1,5.1,0,0,1-.635.278l-1.511.535a4.221,4.221,0,0,0-.788-1.276l1.237-.926Zm-4.555-5.3A4,4,0,0,1,14.015,6.15a4.681,4.681,0,0,1-.055.648L13.708,8.28a5.1,5.1,0,0,0-.788-.072,4.845,4.845,0,0,0-.777.072L11.891,6.8a3.5,3.5,0,0,1-.066-.648A3.979,3.979,0,0,1,12.92,3.444ZM4.72,7.879A4.14,4.14,0,0,1,5.6,7.8a4.5,4.5,0,0,1,2.179.556,3.557,3.557,0,0,1,.536.36L9.57,9.7A4.315,4.315,0,0,0,8.8,10.935L7.292,10.4a6.668,6.668,0,0,1-.613-.278A4.094,4.094,0,0,1,4.72,7.879Zm3.646,8.016a3.391,3.391,0,0,1-.591.381,4.627,4.627,0,0,1-2.19.556,4.825,4.825,0,0,1-.865-.082,4.214,4.214,0,0,1,1.949-2.243,5.1,5.1,0,0,1,.635-.278l1.511-.535A3.905,3.905,0,0,0,9.6,14.968l-1.237.926ZM12.92,21.2A4,4,0,0,1,11.825,18.5a3.8,3.8,0,0,1,.066-.669l.241-1.461a4.29,4.29,0,0,0,1.566,0l.252,1.482a3.5,3.5,0,0,1,.066.648A3.979,3.979,0,0,1,12.92,21.2Zm7.325-4.363a4.5,4.5,0,0,1-2.179-.556,3.892,3.892,0,0,1-.536-.35l-1.259-.988a4.012,4.012,0,0,0,.766-1.245l1.511.535a4.338,4.338,0,0,1,.624.268,4.169,4.169,0,0,1,1.949,2.243,3.681,3.681,0,0,1-.876.093Z" transform="translate(-0.92 -0.324)"/>
    </symbol>

    <symbol class="icons" id="gamburger" xmlns="http://www.w3.org/2000/svg" viewBox="0 0 39 27">
        <defs>
            <style>
                fill: none;
                .cls-2 {
                fill: #fff;
                stroke: #fff;
                stroke-linecap: round;
                stroke-width: 3px;
                }
            </style>
        </defs>
        <g id="Group_485" data-name="Group 485" transform="translate(1048 167) rotate(180)">
            <line id="Line_31" data-name="Line 31" class="cls-2" x2="36" transform="translate(1010.5 165.5)"/>
            <line id="Line_43" data-name="Line 43" class="cls-2" x2="36" transform="translate(1010.5 153.5)"/>
            <line id="Line_44" data-name="Line 44" class="cls-2" x2="36" transform="translate(1010.5 141.5)"/>
        </g>
    </symbol>

    <symbol class="icons" id="gastronomic" xmlns="http://www.w3.org/2000/svg" viewBox="0 0 24 24">
        <defs>
            <style>
                fill: none;
                .cls-1 {
                fill: none;
                }

                .cls-2 {
                fill: #ccc;
                }
            </style>
        </defs>
        <path id="Path_480" data-name="Path 480" class="cls-1" d="M0,0H24V24H0Z"/>
        <path id="Path_481" data-name="Path 481" class="cls-2" d="M20.338,20.429H2V23H23.6V20.429Zm2.182-1.286c-.292-5.233-3.51-9.514-7.733-10.556a3.094,3.094,0,0,0,.173-1.016A2.4,2.4,0,0,0,12.8,5a2.4,2.4,0,0,0-2.16,2.571,3.094,3.094,0,0,0,.173,1.016C6.59,9.629,3.372,13.91,3.08,19.143ZM12.8,10.889c3.186,0,5.908,2.353,7.02,5.67H5.78C6.892,13.241,9.614,10.889,12.8,10.889Z" transform="translate(-0.8 -2)"/>
    </symbol>

    <symbol  class="icons" id="industrial" xmlns="http://www.w3.org/2000/svg" viewBox="0 0 24 24">
        <defs>
            <style>
                fill: none;
                .cls-1 {
                fill: none;
                }

                .cls-2 {
                fill: #ccc;
                }
            </style>
        </defs>
        <path id="Path_464" data-name="Path 464" class="cls-1" d="M0,0H24V24H0Z"/>
        <path id="Path_465" data-name="Path 465" class="cls-2" d="M12.8,7.533V3H2V23.4H23.6V7.533Zm-6.48,13.6H4.16V18.867H6.32Zm0-4.533H4.16V14.333H6.32Zm0-4.533H4.16V9.8H6.32Zm0-4.533H4.16V5.267H6.32Zm4.32,13.6H8.48V18.867h2.16Zm0-4.533H8.48V14.333h2.16Zm0-4.533H8.48V9.8h2.16Zm0-4.533H8.48V5.267h2.16Zm10.8,13.6H12.8V18.867h2.16V16.6H12.8V14.333h2.16V12.067H12.8V9.8h8.64Zm-2.16-9.067H17.12v2.267h2.16Zm0,4.533H17.12v2.267h2.16Z" transform="translate(-0.8 -1.2)"/>
    </symbol>

    <symbol class="icons" id="logout" xmlns="http://www.w3.org/2000/svg" viewBox="0 0 10.674 7.938">
        <defs>
            <style>
                fill: none;
                .cls-2 {
                fill: #666;
                }
            </style>
        </defs>
        <g id="logout" transform="translate(10.674 50.237) rotate(180)">
            <path id="XMLID_4_" class="cls-2" d="M1.657,107.426H7.278a.485.485,0,1,0,0-.97H1.657l.627-.627a.485.485,0,1,0-.686-.686L.142,106.6c-.011.011-.022.023-.032.035l-.007.009-.021.029-.005.009c-.007.01-.013.021-.019.032l0,.007c-.006.012-.012.024-.017.036l0,0c-.005.013-.01.026-.014.04v.005c0,.013-.008.027-.01.041s0,.008,0,.012,0,.023-.005.035a.478.478,0,0,0,0,.1c0,.012,0,.023.005.035s0,.008,0,.012.006.028.01.041v0c0,.014.009.027.014.04l0,0c.005.013.011.025.017.037l0,.006c.006.011.013.022.019.032l.005.009.021.029.007.009c.01.012.021.024.032.035L1.6,108.74a.485.485,0,0,0,.686-.686Z" transform="translate(0 -60.673)"/>
            <path id="XMLID_5_" class="cls-2" d="M106.224,42.3a3.966,3.966,0,0,0-3.3,1.757.485.485,0,0,0,.805.541,3,3,0,1,1,0,3.346.485.485,0,0,0-.8.543,3.969,3.969,0,1,0,3.291-6.188Z" transform="translate(-99.518 0)"/>
        </g>
    </symbol>

    <symbol class="icons" id="plane"  xmlns="http://www.w3.org/2000/svg" viewBox="0 0 36 36">
        <defs>
            <style>
                fill: none;
                .cls-2 {
                fill: #fff;
                }
            </style>
        </defs>
        <path  class="cls-2" d="M5.794,20.161a3.182,3.182,0,0,0-3.529.651L.308,22.768a1.055,1.055,0,0,0,.2,1.65l6.2,3.719L4.334,30.512A1.055,1.055,0,0,0,5.826,32l2.416-2.416,3.84,6.4a1.055,1.055,0,0,0,1.65.2l1.956-1.956a3.182,3.182,0,0,0,.651-3.53l-1.6-3.574,5.2-4.74L29.986,34.46a1.055,1.055,0,0,0,1.556.071,6.754,6.754,0,0,0,1.189-7.949l-1.3-2.44,1.121-1.121a3.164,3.164,0,0,0-4.217-4.7L27.056,15.9l7.256-6.615a5.028,5.028,0,1,0-7.1-7.1L20.6,9.443l-2.62-1.392a3.163,3.163,0,0,0-4.661-4.269L12.146,4.953,9.917,3.768A6.754,6.754,0,0,0,1.968,4.958a1.055,1.055,0,0,0,.071,1.556L14.108,16.561l-4.74,5.2Zm23.78-.123a1.054,1.054,0,0,1,1.491,1.491l-.665.665-1.035-1.948Zm1.3,7.534a4.621,4.621,0,0,1-.1,4.538L21.5,20.969l3.949-3.6,5.421,10.2Zm-16.06-22.3A1.054,1.054,0,0,1,16.3,6.764l-.258.258L14.094,5.987ZM4.39,5.726a4.62,4.62,0,0,1,4.538-.1l10.2,5.421L15.53,15Zm6.023,18.019L28.786,3.593a2.919,2.919,0,1,1,4.121,4.121L12.754,26.087A1.055,1.055,0,0,0,12.5,27.3l1.911,4.27a1.06,1.06,0,0,1-.217,1.176l-1,1L9.779,28.05l.432-.432A1.055,1.055,0,1,0,8.72,26.127l-.472.472L2.755,23.3l1-1a1.061,1.061,0,0,1,1.177-.217L9.2,24a1.055,1.055,0,0,0,1.21-.252Zm0,0" transform="translate(0 -0.5)"/>
    </symbol>

    <symbol class="icons" id="pool" xmlns="http://www.w3.org/2000/svg" viewBox="0 0 16 16">
        <defs>
            <style>
                fill: none;
                .cls-1 {
                fill: none;
                }

                .cls-2 {
                fill: #fff;
                }
            </style>
        </defs>
        <path id="Path_478" data-name="Path 478" class="cls-1" d="M0,0H16V16H0Z"/>
        <path id="Path_479" data-name="Path 479" class="cls-2" d="M7.6,6.611,5.325,8.958a3.787,3.787,0,0,1,.539.282,1.231,1.231,0,0,0,.805.26,1.231,1.231,0,0,0,.8-.26,2.666,2.666,0,0,1,1.533-.462,2.621,2.621,0,0,1,1.526.462,1.287,1.287,0,0,0,.805.26,1.245,1.245,0,0,0,.8-.26c.084-.051.182-.108.287-.166L7.936,4.444A4.581,4.581,0,0,0,4.1,3V4.806A3.388,3.388,0,0,1,6.9,5.889ZM16,12.75h0ZM4.345,12.028a1.287,1.287,0,0,1,.8.26,2.621,2.621,0,0,0,1.526.462A2.621,2.621,0,0,0,8.2,12.288a1.231,1.231,0,0,1,.8-.26,1.287,1.287,0,0,1,.805.26,2.75,2.75,0,0,0,3.052,0,1.231,1.231,0,0,1,.805-.26,1.287,1.287,0,0,1,.8.26,2.641,2.641,0,0,0,1.512.462V11.305a1.287,1.287,0,0,1-.805-.26,2.75,2.75,0,0,0-3.052,0,1.245,1.245,0,0,1-.805.26,1.287,1.287,0,0,1-.8-.26,2.75,2.75,0,0,0-3.052,0,1.231,1.231,0,0,1-.805.26,1.287,1.287,0,0,1-.805-.26,2.621,2.621,0,0,0-1.526-.462,2.621,2.621,0,0,0-1.526.462,1.231,1.231,0,0,1-.805.26V12.75a2.711,2.711,0,0,0,1.54-.462,1.245,1.245,0,0,1,.8-.26Zm9.324,1.806a2.621,2.621,0,0,0-1.526.462,1.245,1.245,0,0,1-.8.26,1.287,1.287,0,0,1-.805-.26,2.621,2.621,0,0,0-1.526-.462,2.666,2.666,0,0,0-1.533.462,1.231,1.231,0,0,1-.8.26,1.231,1.231,0,0,1-.805-.26,2.621,2.621,0,0,0-1.526-.462A2.666,2.666,0,0,0,2.8,14.3a1.231,1.231,0,0,1-.805.26V16a2.666,2.666,0,0,0,1.533-.462,1.245,1.245,0,0,1,.805-.26,1.245,1.245,0,0,1,.805.26A2.621,2.621,0,0,0,6.669,16,2.666,2.666,0,0,0,8.2,15.538a1.231,1.231,0,0,1,.8-.26,1.287,1.287,0,0,1,.805.26,2.75,2.75,0,0,0,3.052,0,1.231,1.231,0,0,1,.805-.26,1.287,1.287,0,0,1,.8.26A2.621,2.621,0,0,0,16,16V14.555a1.231,1.231,0,0,1-.805-.26A2.621,2.621,0,0,0,13.669,13.833Z" transform="translate(-1 -1.5)"/>
        <circle id="Ellipse_72" data-name="Ellipse 72" class="cls-2" cx="1.25" cy="1.25" r="1.25" transform="translate(9.947 1.5)"/>
    </symbol>

    <symbol class="icons" id="propositions" xmlns="http://www.w3.org/2000/svg" viewBox="0 0 9.999 10">
        <defs>
            <style>
                fill: none;
                .cls-2 {
                fill: #084599;
                }
            </style>
        </defs>
        <g id="tag" transform="translate(-0.019)">
            <g id="Group_454" data-name="Group 454" transform="translate(0.019)">
                <g id="Group_453" data-name="Group 453">
                    <path id="Path_199" data-name="Path 199" class="cls-2" d="M5.231,0,.361,4.88a1.174,1.174,0,0,0,0,1.656l3.115,3.12A1.164,1.164,0,0,0,4.3,10h0a1.164,1.164,0,0,0,.828-.343l4.885-4.879V0ZM9.237,4.454,4.581,9.1a.388.388,0,0,1-.276.114h0A.388.388,0,0,1,4.029,9.1L.913,5.984a.391.391,0,0,1,0-.552L5.556.781H9.237Z" transform="translate(-0.019)"/>
                </g>
            </g>
            <g id="Group_456" data-name="Group 456" transform="translate(6.737 2.031)">
                <g id="Group_455" data-name="Group 455">
                    <circle id="Ellipse_30" data-name="Ellipse 30" class="cls-2" cx="0.625" cy="0.625" r="0.625"/>
                </g>
            </g>
        </g>
    </symbol>

    <symbol class="icons"  id="purchases" xmlns="http://www.w3.org/2000/svg" viewBox="0 0 8.362 10">
        <defs>
            <style>
                fill: none;
                .cls-2 {
                fill: #4d4d4d;
                }
            </style>
        </defs>
        <g id="shield" transform="translate(-41.927)">
            <g id="Group_458" data-name="Group 458" transform="translate(41.927)">
                <g id="Group_457" data-name="Group 457">
                    <path id="Path_200" data-name="Path 200" class="cls-2" d="M143.976,158.6l-1.265-1.2-.539.566,1.848,1.759,2.815-3.135-.581-.522Z" transform="translate(-140.214 -153.013)"/>
                    <path id="Path_201" data-name="Path 201" class="cls-2" d="M49.321,1.273a6.313,6.313,0,0,1-2.255-.98,1.711,1.711,0,0,0-1.915,0,6.313,6.313,0,0,1-2.255.98,1.173,1.173,0,0,0-.968,1.154V4.785a4.355,4.355,0,0,0,.648,2.257,6.55,6.55,0,0,0,1.385,1.6,9.1,9.1,0,0,0,1.99,1.291l.159.071.159-.071a9.094,9.094,0,0,0,1.99-1.291,6.55,6.55,0,0,0,1.385-1.6,4.354,4.354,0,0,0,.648-2.257V2.428A1.173,1.173,0,0,0,49.321,1.273Zm.187,3.512a4.3,4.3,0,0,1-1.743,3.247,8.67,8.67,0,0,1-1.656,1.106c-.691-.351-3.4-1.886-3.4-4.353V2.428a.392.392,0,0,1,.325-.385,7.1,7.1,0,0,0,2.554-1.1.93.93,0,0,1,1.042,0,7.1,7.1,0,0,0,2.554,1.1.392.392,0,0,1,.325.385Z" transform="translate(-41.927 0)"/>
                </g>
            </g>
        </g>
    </symbol>

    <symbol class="icons" id="search" xmlns="http://www.w3.org/2000/svg" viewBox="0 0 14.482 15">
        <defs>
            <style>
                fill: none;
                .cls-2 {
                fill: #fff;
                }
            </style>
        </defs>
        <path id="search" class="cls-2" d="M15.246,13.663,11.676,9.95A6.054,6.054,0,1,0,7.04,12.112a5.991,5.991,0,0,0,3.47-1.1l3.6,3.741a.79.79,0,1,0,1.139-1.1ZM7.04,1.58A4.476,4.476,0,1,1,2.564,6.056,4.481,4.481,0,0,1,7.04,1.58Z" transform="translate(-0.984)"/>
    </symbol>

    <symbol class="icons" id="shopping" xmlns="http://www.w3.org/2000/svg" viewBox="0 0 24 24">
        <defs>
            <style>
                fill: none;
                .cls-1 {
                fill: none;
                }

                .cls-2 {
                fill: #ccc;
                }
            </style>
        </defs>
        <path id="Path_466" data-name="Path 466" class="cls-1" d="M0,0H24V24H0Z"/>
        <path id="Path_467" data-name="Path 467" class="cls-2" d="M21.44,6.421H19.086a3.39,3.39,0,0,0,.194-1.105A3.274,3.274,0,0,0,16.04,2a3.218,3.218,0,0,0-2.7,1.492l-.54.741-.54-.752A3.234,3.234,0,0,0,9.56,2,3.274,3.274,0,0,0,6.32,5.316a3.39,3.39,0,0,0,.194,1.105H4.16A2.169,2.169,0,0,0,2.011,8.632L2,20.789A2.178,2.178,0,0,0,4.16,23H21.44a2.178,2.178,0,0,0,2.16-2.211V8.632A2.178,2.178,0,0,0,21.44,6.421Zm-5.4-2.211a1.106,1.106,0,1,1-1.08,1.105A1.1,1.1,0,0,1,16.04,4.211Zm-6.48,0A1.106,1.106,0,1,1,8.48,5.316,1.1,1.1,0,0,1,9.56,4.211ZM21.44,20.789H4.16V18.579H21.44Zm0-5.526H4.16V8.632H9.646L7.4,11.759l1.75,1.293L12.8,7.968l3.65,5.084,1.75-1.293L15.954,8.632H21.44Z" transform="translate(-0.8 -0.8)"/>
    </symbol>

    <symbol class="icons" id="shopping-cart" xmlns="http://www.w3.org/2000/svg" viewBox="0 0 12 12">
        <defs>
            <style>
                fill: none;
                .cls-2 {
                fill: #fff;
                }
            </style>
        </defs>
        <g id="shopping-cart_1_" data-name="shopping-cart (1)" transform="translate(0 0)">
            <g id="shopping-cart">
                <path id="Path_193" data-name="Path 193" class="cls-2" d="M3.6,9.6a1.2,1.2,0,1,0,1.2,1.2A1.2,1.2,0,0,0,3.6,9.6ZM0,0V1.2H1.2L3.36,5.76,2.52,7.2a2.132,2.132,0,0,0-.12.6A1.2,1.2,0,0,0,3.6,9h7.2V7.8H3.84a.129.129,0,0,1-.12-.12V7.62L4.26,6.6H8.7A1.094,1.094,0,0,0,9.72,6l2.16-3.9A.33.33,0,0,0,12,1.8a.567.567,0,0,0-.6-.6H2.52L1.98,0ZM9.6,9.6a1.2,1.2,0,1,0,1.2,1.2A1.2,1.2,0,0,0,9.6,9.6Z"/>
            </g>
        </g>
    </symbol>

    <symbol class="icons" id="spa" xmlns="http://www.w3.org/2000/svg" viewBox="0 0 24 24">
        <defs>
            <style>
                fill: none;
                .cls-1 {
                fill: none;
                }

                .cls-2 {
                fill: #ccc;
                }
            </style>
        </defs>
        <path id="Path_482" data-name="Path 482" class="cls-1" d="M0,0H24V24H0Z"/>
        <path id="Path_483" data-name="Path 483" class="cls-2" d="M16.569,10.24A12.735,12.735,0,0,0,12.865,2a13.163,13.163,0,0,0-3.834,8.24,14.976,14.976,0,0,1,3.769,2.84A15.506,15.506,0,0,1,16.569,10.24Zm-3.715-4.8a10.957,10.957,0,0,1,1.4,3.65,15.523,15.523,0,0,0-1.447,1.058,17.466,17.466,0,0,0-1.436-1.048,11.025,11.025,0,0,1,1.48-3.661ZM12.8,16.526A13.079,13.079,0,0,0,9.5,13.07c-.14-.1-.292-.173-.432-.281.14.1.292.184.421.27A12.719,12.719,0,0,0,2,10.64a13.148,13.148,0,0,0,8.672,12.409A11.609,11.609,0,0,0,12.8,23.6a13.975,13.975,0,0,0,2.128-.551A13.148,13.148,0,0,0,23.6,10.64,12.9,12.9,0,0,0,12.8,16.526Zm1.426,4.482a13.5,13.5,0,0,1-1.436.4,9.674,9.674,0,0,1-1.382-.389,10.963,10.963,0,0,1-6.966-7.938,10.914,10.914,0,0,1,3.37,1.436l-.022.011a4.59,4.59,0,0,0,.421.27l.076.043A10.693,10.693,0,0,1,11,17.7l1.8,2.765,1.8-2.754a11,11,0,0,1,2.732-2.873l.076-.054c.1-.054.194-.119.292-.184l-.011-.022a10.792,10.792,0,0,1,3.467-1.512,10.927,10.927,0,0,1-6.934,7.938ZM9.549,13.1a.236.236,0,0,1-.054-.043.011.011,0,0,1,.011.011A.149.149,0,0,0,9.549,13.1Z" transform="translate(-0.8 -0.8)"/>
    </symbol>

    <symbol class="icons" id="user" data-name="user (1)" xmlns="http://www.w3.org/2000/svg" viewBox="0 0 10 10">
        <defs>
            <style>
                fill: none;
                .cls-2 {
                fill: #4d4d4d;
                }
            </style>
        </defs>
        <g id="Group_451" data-name="Group 451" transform="translate(0)">
            <path id="Path_197" data-name="Path 197" class="cls-2" d="M8.536,6.464a4.981,4.981,0,0,0-1.9-1.192,2.891,2.891,0,1,0-3.271,0A5.008,5.008,0,0,0,0,10H.781a4.219,4.219,0,1,1,8.437,0H10A4.967,4.967,0,0,0,8.536,6.464ZM5,5A2.109,2.109,0,1,1,7.109,2.891,2.112,2.112,0,0,1,5,5Z" transform="translate(0)"/>
        </g>
    </symbol>

    <symbol class="icons" id="pencil" xmlns="http://www.w3.org/2000/svg" viewBox="0 0 14 13.932">
        <defs>
            <style>
                fill: none;
                .cls-2 {
                fill: #fff;
                }
            </style>
        </defs>
        <path id="Path_236" data-name="Path 236" class="cls-2" d="M8.706,3.614l2.848,2.848L4.345,13.671,1.5,10.823Zm5.009-.687-1.27-1.27a1.26,1.26,0,0,0-1.78,0L9.448,2.873,12.3,5.721,13.715,4.3A.971.971,0,0,0,13.715,2.927ZM.009,14.826a.324.324,0,0,0,.392.386l3.174-.769L.728,11.594Z" transform="translate(-0.001 -1.289)"/>
    </symbol>

    <symbol id="rubish-bin" class="icons" xmlns="http://www.w3.org/2000/svg" viewBox="0 0 12 15.182">
        <defs>
            <style>
                fill: none;
                .cls-2 {
                fill: #fff;
                }

            </style>
        </defs>
        <g id="rubbish-bin" transform="translate(-81.133)">
            <g id="Group_597" data-name="Group 597" transform="translate(81.133)">
                <path id="Path_237" data-name="Path 237" class="cls-2" d="M92.1,1.788H90.071V.47A.471.471,0,0,0,89.592,0a.072.072,0,0,0-.051.017A.065.065,0,0,0,89.506,0H84.674a.464.464,0,0,0-.47.47V1.788H82.168a1.022,1.022,0,0,0-1.035,1.035V4.516h.9v9.639a1.008,1.008,0,0,0,1.026,1.026h8.151a1.015,1.015,0,0,0,1.035-1.026V4.516h.89V2.823A1.022,1.022,0,0,0,92.1,1.788ZM85.144.941h3.977v.847H85.144Zm6.15,13.215c0,.06-.026.086-.086.086H83.057c-.06,0-.086-.026-.086-.086V4.516h8.322Zm.89-10.58h-10.1V2.823c0-.06.026-.094.086-.094H92.1c.06,0,.086.034.086.094Z" transform="translate(-81.133)"/>
                <rect id="Rectangle_326" data-name="Rectangle 326" class="cls-2" width="0.949" height="7.783" transform="translate(7.723 5.619)"/>
                <rect id="Rectangle_327" data-name="Rectangle 327" class="cls-2" width="0.949" height="7.783" transform="translate(5.534 5.619)"/>
                <rect id="Rectangle_328" data-name="Rectangle 328" class="cls-2" width="0.949" height="7.783" transform="translate(3.344 5.619)"/>
            </g>
        </g>
    </symbol>

    <symbol class="icons" id="boat" xmlns="http://www.w3.org/2000/svg" viewBox="0 0 24 24">
        <defs>
            <style>
                fill: none;
                .cls-1 {
                fill: none;
                }

                .cls-2 {
                fill: #ccc;
                }
            </style>
        </defs>
        <path id="Path_470" data-name="Path 470" class="cls-1" d="M0,0H24V24H0Z"/>
        <path id="Path_471" data-name="Path 471" class="cls-2" d="M13.88,3.073V4.109H11.72V3.073h2.16M12.8,10.441l5.81,1.834,2.581.808L19.981,17.2a4.718,4.718,0,0,1-1.231-.974l-1.631-1.793-1.631,1.783A3.872,3.872,0,0,1,12.8,17.582a3.872,3.872,0,0,1-2.689-1.368L8.48,14.431,6.849,16.214a4.725,4.725,0,0,1-1.231.964l-1.22-4.1,2.592-.819,5.81-1.814M16.039,1H9.56V4.109H6.32A2.124,2.124,0,0,0,4.16,6.182V10.97l-1.393.435a1.067,1.067,0,0,0-.648.518,1,1,0,0,0-.065.808l2.052,6.923H4.16a5.976,5.976,0,0,0,4.32-2.073,5.976,5.976,0,0,0,4.32,2.073,5.976,5.976,0,0,0,4.32-2.073,5.976,5.976,0,0,0,4.32,2.073h.054l2.041-6.923a1.051,1.051,0,0,0-.065-.808,1.067,1.067,0,0,0-.648-.518l-1.382-.435V6.182a2.124,2.124,0,0,0-2.16-2.073h-3.24ZM6.32,10.3V6.182H19.279V10.3L12.8,8.255Zm10.8,10.063a7.7,7.7,0,0,1-8.64,0,7.811,7.811,0,0,1-4.32,1.368H2V23.8H4.16a9.857,9.857,0,0,0,4.32-1.026,9.87,9.87,0,0,0,4.32,1.005,9.728,9.728,0,0,0,4.32-1.005,9.716,9.716,0,0,0,4.32,1.026H23.6V21.727h-2.16A7.811,7.811,0,0,1,17.119,20.359Z" transform="translate(-0.799 -0.4)"/>
    </symbol>

    <symbol class="icons" id="selector" xmlns="http://www.w3.org/2000/svg" viewBox="0 0 8.707 5.061">
        <defs>
            <style>
                fill: none;
                .cls-1 {
                fill: none;
                stroke: #222;
                }
            </style>
        </defs>
        <path id="Path_370" data-name="Path 370" class="cls-1" d="M4808,300l4,4,4-4" transform="translate(-4807.646 -299.646)"/>
    </symbol>

    <symbol class="icons" id="arrow-right" xmlns="http://www.w3.org/2000/svg" viewBox="0 0 24 24">
        <defs>
            <style>
                fill: none;
                .cls-1 {
                fill: none;
                }

                .cls-2 {
                fill: #023881;
                }
            </style>
        </defs>
        <path id="Path_486" data-name="Path 486" class="cls-1" d="M0,0H24V24H0Z"/>
        <path id="Path_487" data-name="Path 487" class="cls-2" d="M16.01,11H4v2H16.01v3L20,12,16.01,8Z"/>
    </symbol>

    <symbol class="icons" id="close-grey" xmlns="http://www.w3.org/2000/svg" viewBox="0 0 10.533 10.533">
        <defs>
            <style>
                fill: none;
                .cls-1 {
                fill: none;
                stroke: black;
                stroke-linecap: round;
                }
            </style>
        </defs>
        <g id="Group_703" data-name="Group 703" transform="translate(-377.174 -284.793)">
            <line id="Line_54" data-name="Line 54" class="cls-1" x2="12.895" transform="translate(377.881 285.5) rotate(45)"/>
            <line id="Line_55" data-name="Line 55" class="cls-1" y2="12.895" transform="translate(387 285.5) rotate(45)"/>
        </g>
    </symbol>

    <symbol class="icons" id="plus" data-name="Group 576" xmlns="http://www.w3.org/2000/svg" viewBox="0 0 27 27">
        <defs>
            <style>
                fill: none;
                .cls-1 {
                fill: none;
                stroke: #084599;
                stroke-width: 2px;
                }
            </style>
        </defs>
        <line id="Line_52" data-name="Line 52" class="cls-1" x2="27" transform="translate(0 13.5)"/>
        <line id="Line_53" data-name="Line 53" class="cls-1" y2="27" transform="translate(13.5)"/>
    </symbol>

    <symbol class="icons" id="rubbish-bin-grey" xmlns="http://www.w3.org/2000/svg" viewBox="0 0 12 15.182">
        <defs>
            <style>
                fill: none;
                .cls-2 {
                fill:
                #CCCCCC;
                .cls-1 {
                fill:
                #CCCCCC;
                }
            </style>
        </defs>
        <g id="rubbish-bin" transform="translate(-81.133)">
            <g id="Group_597" data-name="Group 597" transform="translate(81.133)">
                <path id="Path_237" data-name="Path 237" class="cls-2"
                      d="M92.1,1.788H90.071V.47A.471.471,0,0,0,89.592,0a.072.072,0,0,0-.051.017A.065.065,0,0,0,89.506,0H84.674a.464.464,0,0,0-.47.47V1.788H82.168a1.022,1.022,0,0,0-1.035,1.035V4.516h.9v9.639a1.008,1.008,0,0,0,1.026,1.026h8.151a1.015,1.015,0,0,0,1.035-1.026V4.516h.89V2.823A1.022,1.022,0,0,0,92.1,1.788ZM85.144.941h3.977v.847H85.144Zm6.15,13.215c0,.06-.026.086-.086.086H83.057c-.06,0-.086-.026-.086-.086V4.516h8.322Zm.89-10.58h-10.1V2.823c0-.06.026-.094.086-.094H92.1c.06,0,.086.034.086.094Z" transform="translate(-81.133)"/>
                <rect id="Rectangle_326" data-name="Rectangle 326" class="cls-1" width="0.949" height="7.783"
                      transform="translate(7.723 5.619)"/>
                <rect id="Rectangle_327" data-name="Rectangle 327" class="cls-1" width="0.949" height="7.783"
                      transform="translate(5.534 5.619)"/>
                <rect id="Rectangle_328" data-name="Rectangle 328" class="cls-1" width="0.949" height="7.783"
                      transform="translate(3.344 5.619)"/>
            </g>
        </g>
    </symbol>







</svg>

